<?xml version="1.0" encoding="UTF-8" standalone="no"?>
<!-- Created with Inkscape (http://www.inkscape.org/) -->

<svg
   width="20.748322mm"
   height="39.151173mm"
   viewBox="0 0 20.748322 39.151173"
   version="1.1"
   id="svg1"
   xml:space="preserve"
   xmlns="http://www.w3.org/2000/svg"
   xmlns:svg="http://www.w3.org/2000/svg"><defs
     id="defs1" /><g
     id="layer1"
     transform="translate(-88.196421,-1.4761049)"><ellipse
       style="fill:#ffffff;fill-opacity:1;stroke:none;stroke-width:0.366787;stroke-linecap:round;stroke-linejoin:round;stroke-dasharray:none;stroke-opacity:1"
       id="path3-9-0-5-1-7-0-5-4-2-2-0"
       cx="99.066605"
       cy="24.736778"
       rx="7.6676478"
       ry="7.5405974" /><path
       d="m 99.033524,40.613429 c -1.80489,0.068 -3.73816,-0.0869 -5.29165,-1.0895 -1.15066,-0.73043 0.007,-1.8983 0.92,-2.11713 0.44215,-0.0452 1.05769,-0.59265 1.4304,-0.22536 0.7722,0.65262 1.41868,1.58812 2.44821,1.81011 1.11842,0.0782 1.808386,-0.96388 2.583586,-1.61356 0.24038,-0.37372 0.57016,-0.3883 0.94827,-0.20874 0.8184,0.26522 1.85141,0.58884 2.14173,1.49544 -0.24174,1.12896 -1.58181,1.41726 -2.53729,1.69197 -0.86145,0.21883 -1.760436,0.22413 -2.643256,0.25677 z m -0.34092,-2.07905 c -1.05214,-0.28658 -1.70953,-1.34458 -2.52115,-2.03241 -2.90008,-2.92053 -5.17142,-6.65111 -5.7878,-10.767046 -0.0622,-1.71834 -0.24822,-3.52659 0.48976,-5.139007 1.15112,-2.805023 3.92132,-5.007635 6.98505,-5.188913 1.43905,-0.05653 2.938536,-0.04834 4.239776,0.657797 3.12494,1.280469 5.21906,4.621296 5.04968,7.988513 -0.032,4.265516 -2.16358,8.214006 -4.89135,11.377636 -0.98277,1.04747 -1.9451,2.14695 -3.122316,2.98051 -0.14208,0.0564 -0.28726,0.11195 -0.44165,0.12292 z m 0.29508,-9.39263 c 2.691216,-0.0532 5.069106,-2.457496 5.073946,-5.150896 0.2337,-2.941247 -2.44781,-5.710154 -5.394896,-5.562767 -2.38128,-0.058 -4.59093,1.72364 -5.15183,4.021967 -0.7687,2.62695 0.9004,5.631296 3.50963,6.430136 0.63169,0.20709 1.29717,0.33429 1.96315,0.26156 z"
       style="fill:#2c3bac;fill-opacity:1;stroke:none;stroke-width:0.366787;stroke-dasharray:none;stroke-opacity:1"
       id="path1-5-6-1-3-5-7-1-6-1-5-6-7-1-5" /><path
       style="fill:#2c3bac;fill-opacity:1;stroke:none;stroke-width:0.366787;stroke-dasharray:none;stroke-opacity:1"
       d="m 98.735784,27.211607 c -0.82978,-0.0111 -1.66212,0.0265 -2.49001,-0.0366 -0.31655,-0.0606 -0.63285,-0.299954 -0.6553,-0.643884 -0.0353,-0.47575 0.1567,-0.93391 0.276,-1.38659 0.15522,-0.65548 0.61747,-1.18776 1.15389,-1.57226 0.11526,-0.0588 0.23551,-0.17307 0.35246,-0.19486 0.59966,0.43203 1.40587,0.57621 2.10592,0.32048 0.22726,-0.0794 0.43637,-0.19885 0.636456,-0.33088 0.67084,0.37247 1.26954,0.95976 1.46913,1.71998 0.12792,0.45526 0.30888,0.91401 0.30334,1.39311 -0.003,0.32803 -0.26132,0.57209 -0.55513,0.671184 -0.56983,0.0947 -1.15389,0.0433 -1.729766,0.06 -0.289,3.4e-4 -0.578,1.8e-4 -0.86699,1.8e-4 z m 0.0748,-3.754624 c -0.63565,0.0604 -1.24789,-0.29297 -1.59929,-0.81036 -0.27129,-0.34708 -0.32999,-0.80039 -0.27774,-1.226507 0.0178,-0.53111 0.3669,-1.00907 0.78874,-1.30657 0.52406,-0.36464 1.23904,-0.41315 1.80762,-0.122 0.592716,0.27333 1.033366,0.8998 1.014006,1.563197 0.0703,0.50291 -0.14287,1.00301 -0.50005,1.35207 -0.314836,0.34034 -0.769236,0.54459 -1.233286,0.55017 z"
       id="path2-07-1-6-7-9-7-9-3-5-4-0" /><g
       id="g10"
       transform="rotate(-90,81.771334,77.089301)"><rect
         style="fill:#2c3bac;fill-opacity:1;stroke:#2c3bac;stroke-width:0.320991;stroke-linecap:round;stroke-linejoin:round;stroke-dasharray:none;stroke-opacity:1"
         id="rect4-1-3-1-1-9-6-7-4"
         width="6.2564244"
         height="3.0650291"
         x="142.75182"
         y="83.674881"
         ry="0.28431755" /><rect
         style="fill:#2fbb2b;fill-opacity:1;stroke:none;stroke-width:0.320991;stroke-linecap:round;stroke-linejoin:round;stroke-dasharray:none;stroke-opacity:1"
         id="rect5-8-5-9-1-0-3-8-5"
         width="1.4036551"
         height="2.3982778"
         x="143.17929"
         y="83.95919"
         ry="0" /><rect
         style="fill:#2fbb2b;fill-opacity:1;stroke:none;stroke-width:0.320991;stroke-linecap:round;stroke-linejoin:round;stroke-dasharray:none;stroke-opacity:1"
         id="rect5-3-4-4-1-4-7-6-6-4"
         width="1.4036551"
         height="2.3982778"
         x="145.1537"
         y="83.95919"
         ry="0" /><rect
         style="fill:#2fbb2b;fill-opacity:1;stroke:none;stroke-width:0.320991;stroke-linecap:round;stroke-linejoin:round;stroke-dasharray:none;stroke-opacity:1"
         id="rect5-3-1-2-1-4-0-7-2-8-1"
         width="1.4036551"
         height="2.3982778"
         x="147.12813"
         y="83.95919"
         ry="0" /></g><path
       style="fill:#ff0000;fill-opacity:0;stroke-width:0.181179"
       d="m 96.801924,10.033426 c -0.73535,-0.0115 -1.47776,0.03488 -2.20891,-0.03297 -0.47338,-0.09549 -0.75626,-0.5941452 -0.57153,-1.0424912 0.25484,-0.654568 0.68049,-1.22803 1.00666,-1.848172 0.98265,-1.6874669 1.92511,-3.3988849 2.94266,-5.0656859 0.22978,-0.402439 0.81388,-0.81053 1.21864,-0.392095 0.43083,0.571527 0.7564,1.220833 1.130506,1.832427 0.96847,1.643079 1.87755,3.320261 2.83762,4.9679719 0.27269,0.372599 0.59516,1.043058 0.075,1.356276 -0.3709,0.2566712 -0.8538,0.140757 -1.27702,0.185827 -1.71777,0.02287 -3.435766,0.02595 -5.153636,0.03891 z m 1.90525,-0.9229652 c 0.62742,0.04948 0.9834,-0.847767 0.46891,-1.225765 -0.40346,-0.390618 -1.19743,-0.047 -1.1244,0.530466 -0.0188,0.375216 0.29253,0.670939 0.65549,0.695299 z m 0.49923,-1.821425 c 0.11112,-1.1766169 0.15368,-2.3607759 0.19206,-3.5421049 -0.43404,-0.06641 -0.89194,-0.07674 -1.32597,-0.0085 0.006,1.183358 0.0981,2.366165 0.17408,3.5472349 0.31957,0.0035 0.64151,0.03587 0.95983,0.0034 z"
       id="path10-4-1" /><path
       style="fill:#ff0000;fill-opacity:0;stroke-width:0.0992125"
       d="m 98.723864,14.594259 c -3.30675,-0.0014 -3.87365,-0.0072 -3.96297,-0.03988 -0.0573,-0.02097 -0.13854,-0.07034 -0.18049,-0.109704 -0.0419,-0.03938 -0.0982,-0.118813 -0.1249,-0.176568 -0.0452,-0.09755 -0.0487,-0.194781 -0.0492,-1.3724 -6.8e-4,-1.087333 0.005,-1.281272 0.0402,-1.365001 0.0224,-0.05365 0.0726,-0.131127 0.11157,-0.172117 0.0389,-0.04102 0.10623,-0.09415 0.14954,-0.118129 0.0722,-0.03995 0.40127,-0.04416 3.97538,-0.05058 3.449356,-0.0064 3.910586,-0.0021 4.018226,0.03339 0.0669,0.02219 0.15849,0.07851 0.20359,0.125112 0.0451,0.04658 0.10032,0.128644 0.12271,0.182319 0.0349,0.08366 0.0407,0.27856 0.0402,1.364994 -6.8e-4,1.169136 -0.004,1.275565 -0.0484,1.372635 -0.0263,0.05786 -0.0907,0.142868 -0.14307,0.188874 -0.0524,0.04601 -0.1399,0.09605 -0.19444,0.111195 -0.0673,0.01869 -1.34072,0.02697 -3.957896,0.02582 z m -1.07626,-0.838 h 0.56438 v -0.118121 -0.118129 h -0.44625 -0.44624 v -0.787499 -0.7875 h -0.11813 -0.11812 v 0.905621 0.905628 z m 0.99751,0 h 0.11812 V 12.850631 11.94501 h -0.11812 -0.11813 v 0.905621 0.905628 z m 1.18464,-0.005 0.12205,-0.0081 0.350416,-0.892495 c 0.19273,-0.490876 0.35055,-0.896104 0.35071,-0.900498 1.8e-4,-0.0043 -0.0556,-0.0043 -0.12385,0 l -0.12414,0.008 -0.1513,0.406869 c -0.0832,0.223787 -0.21251,0.575262 -0.287336,0.781065 l -0.13605,0.374196 -0.27865,-0.781065 -0.27865,-0.781065 -0.13919,-0.0081 c -0.0765,-0.0043 -0.13312,0.0014 -0.12571,0.01377 0.007,0.01199 0.16016,0.399493 0.33945,0.861142 0.1793,0.461642 0.33369,0.860678 0.34309,0.886745 0.0138,0.03817 0.0408,0.0458 0.13916,0.03938 z m 1.727346,-7.13e-4 0.658,-0.0071 v -0.105002 -0.105002 l -0.55125,-0.0071 -0.55125,-0.0071 0.005,-0.294811 0.005,-0.294811 0.49405,-0.01313 0.49406,-0.01313 V 12.8049 12.70645 l -0.49045,2.1e-5 -0.49044,1.5e-5 -0.008,-0.2648 c -0.004,-0.145636 -0.004,-0.269671 0.003,-0.275628 0.006,-0.0057 0.24522,-0.01084 0.53156,-0.01084 h 0.52063 v -0.105031 -0.105003 h -0.65627 -0.65624 v 0.888122 c 0,0.488465 0.008,0.896197 0.0179,0.906063 0.01,0.0098 0.31404,0.01484 0.67594,0.01091 z m -5.720736,-0.231734 c 0.0974,3.42e-4 0.1978,-0.01784 0.26308,-0.04751 0.0581,-0.02639 0.14197,-0.08435 0.18644,-0.128822 0.0445,-0.04444 0.10328,-0.12599 0.13067,-0.181149 0.0335,-0.06748 0.0498,-0.156101 0.0498,-0.270913 0,-0.114811 -0.0163,-0.203427 -0.0498,-0.270913 -0.0274,-0.05514 -0.0862,-0.136676 -0.13067,-0.181148 -0.0444,-0.04444 -0.12837,-0.102441 -0.18644,-0.128822 -0.0613,-0.02789 -0.16743,-0.04823 -0.25331,-0.04851 -0.0812,-3.42e-4 -0.19008,0.01712 -0.24184,0.03874 -0.0517,0.02162 -0.13657,0.07662 -0.1885,0.122202 -0.0519,0.04559 -0.11946,0.131248 -0.15008,0.190366 -0.04,0.07723 -0.0557,0.155516 -0.0557,0.278111 0,0.122594 0.0157,0.20088 0.0557,0.278111 0.0306,0.05914 0.0998,0.146178 0.15363,0.193482 0.0539,0.0473 0.1343,0.101821 0.17873,0.121175 0.0444,0.01933 0.15167,0.03538 0.23829,0.0356 z"
       id="path9-9" /><ellipse
       style="fill:#54aa3a;fill-opacity:1;stroke:#2c3bac;stroke-width:0.467;stroke-linecap:round;stroke-linejoin:round;stroke-dasharray:none;stroke-opacity:1"
       id="path4-4-3-8-1-3-7-0-7-2"
       cx="106.97713"
       cy="12.811569"
       rx="1.734109"
       ry="1.7969171" /></g></svg>
