<?xml version="1.0" encoding="UTF-8" standalone="no"?>
<!-- Created with Inkscape (http://www.inkscape.org/) -->

<svg
   width="11.870633mm"
   height="11.655789mm"
   viewBox="0 0 11.870633 11.655789"
   version="1.1"
   id="svg1"
   sodipodi:docname="logo.svg"
   inkscape:version="1.3.2 (091e20e, 2023-11-25, custom)"
   xmlns:inkscape="http://www.inkscape.org/namespaces/inkscape"
   xmlns:sodipodi="http://sodipodi.sourceforge.net/DTD/sodipodi-0.dtd"
   xmlns="http://www.w3.org/2000/svg"
   xmlns:svg="http://www.w3.org/2000/svg">
  <sodipodi:namedview
     id="namedview1"
     pagecolor="#ffffff"
     bordercolor="#000000"
     borderopacity="0.25"
     inkscape:showpageshadow="2"
     inkscape:pageopacity="0.0"
     inkscape:pagecheckerboard="0"
     inkscape:deskcolor="#d1d1d1"
     inkscape:document-units="mm"
     inkscape:zoom="11.844781"
     inkscape:cx="15.492055"
     inkscape:cy="26.467353"
     inkscape:window-width="2560"
     inkscape:window-height="1377"
     inkscape:window-x="1192"
     inkscape:window-y="253"
     inkscape:window-maximized="1"
     inkscape:current-layer="layer1" />
  <defs
     id="defs1" />
  <g
     inkscape:label="Capa 1"
     inkscape:groupmode="layer"
     id="layer1"
     transform="translate(-128.20156,-132.75422)">
    <path
       id="path1"
       style="color:#000000;fill:#e0e0e0;stroke-linecap:round;stroke-linejoin:round;-inkscape-stroke:none"
       d="m 134.20326,132.7537 c -3.211,0 -5.82652,2.61758 -5.82652,5.82859 0,0.66289 0.11319,1.29947 0.31833,1.89394 0.29892,-0.31881 0.70999,-0.53074 1.16789,-0.57051 -0.12654,-0.41848 -0.19482,-0.86259 -0.19482,-1.32343 0,-2.51321 2.02192,-4.53719 4.53512,-4.53719 0.86201,0 1.66631,0.23838 2.35128,0.65267 0.16003,-0.41896 0.47108,-0.76507 0.86558,-0.971 -0.92292,-0.61405 -2.02891,-0.97307 -3.21686,-0.97307 z m 5.44308,3.75068 c -0.28312,0.33744 -0.6856,0.57146 -1.13998,0.63562 0.1509,0.45293 0.23409,0.93744 0.23409,1.44229 0,2.51321 -2.02398,4.53667 -4.53719,4.53667 -0.92132,0 -1.7759,-0.27266 -2.48977,-0.74104 -0.16422,0.41485 -0.47743,0.75661 -0.8723,0.9586 0.95084,0.67516 2.11075,1.07384 3.36207,1.07384 3.21101,0 5.82807,-2.61708 5.82807,-5.82807 0,-0.73163 -0.13719,-1.43185 -0.38499,-2.07791 z"
       sodipodi:nodetypes="ssccssccsccssccssc"
       inkscape:export-filename="..\..\..\..\logo_kerno2.svg"
       inkscape:export-xdpi="300"
       inkscape:export-ydpi="300" />
    <path
       id="path2"
       style="color:#000000;fill:#e0e0e0;stroke-linecap:round;stroke-linejoin:round;-inkscape-stroke:none"
       d="m 136.13286,134.51535 v 5.2e-4 c -0.43868,0.008 -0.87295,0.0984 -1.25987,0.35915 -0.60374,0.40656 -0.70514,1.06509 -0.79117,1.59577 -0.086,0.53068 -0.0816,0.99425 -0.0816,0.99425 6.4e-4,0.31008 0.25216,0.56062 0.56224,0.56018 0.31084,-6.4e-4 0.56221,-0.25347 0.56069,-0.56431 0,0 -6.7e-4,-0.3841 0.0682,-0.80874 0.0688,-0.42463 0.2808,-0.82676 0.30851,-0.84542 0.13237,-0.0892 0.52028,-0.13535 0.96997,-0.12093 -0.022,-0.11219 -0.0341,-0.22798 -0.0341,-0.34623 0,-0.28733 0.0685,-0.55949 0.18914,-0.80202 -0.16297,-0.016 -0.3278,-0.0251 -0.49196,-0.0222 z"
       sodipodi:nodetypes="ccccccccccscc" />
    <path
       style="color:#000000;fill:#e0e0e0;stroke-linecap:round;stroke-linejoin:round;-inkscape-stroke:none"
       d="m 138.25391,133.52148 c -0.99812,0 -1.81836,0.82024 -1.81836,1.81836 0,0.99812 0.82024,1.81836 1.81836,1.81836 0.99812,0 1.81836,-0.82024 1.81836,-1.81836 0,-0.99812 -0.82024,-1.81836 -1.81836,-1.81836 z m 0,1.06446 c 0.42325,0 0.7539,0.33065 0.7539,0.7539 0,0.42325 -0.33065,0.75586 -0.7539,0.75586 -0.42325,0 -0.75586,-0.33261 -0.75586,-0.75586 0,-0.42325 0.33261,-0.7539 0.75586,-0.7539 z"
       id="path1-0" />
    <path
       id="path2-3"
       style="color:#000000;fill:#e0e0e0;stroke-linecap:round;stroke-linejoin:round;-inkscape-stroke:none"
       d="m 134.32832,139.4582 c -0.25369,-0.009 -0.48205,0.15281 -0.55707,0.39533 0,0 -0.0948,0.30634 -0.2496,0.6506 -0.1548,0.34425 -0.421,0.70731 -0.47697,0.74415 -0.0985,0.0649 -0.66957,0.11238 -1.24644,0.0863 0.0269,0.12343 0.0419,0.2514 0.0419,0.38241 0,0.26435 -0.0584,0.51565 -0.16175,0.74311 0.62221,0.064 1.3467,0.14698 1.98386,-0.27234 0.48651,-0.32018 0.6978,-0.80701 0.8847,-1.22266 0.18691,-0.41565 0.29921,-0.78135 0.29921,-0.78135 0.0906,-0.29667 -0.0765,-0.61062 -0.37311,-0.70125 h -5.1e-4 c -0.0468,-0.0143 -0.0953,-0.0225 -0.14418,-0.0243 z"
       sodipodi:nodetypes="cccccsccccccc" />
    <path
       style="color:#000000;fill:#e0e0e0;stroke-linecap:round;stroke-linejoin:round;-inkscape-stroke:none"
       d="m 130.01953,139.89844 c -0.99812,0 -1.81836,0.82024 -1.81836,1.81836 0,0.99812 0.82024,1.81836 1.81836,1.81836 0.99812,0 1.82031,-0.82024 1.82031,-1.81836 0,-0.99812 -0.82219,-1.81836 -1.82031,-1.81836 z m 0,1.06445 c 0.42325,0 0.75586,0.33066 0.75586,0.75391 0,0.42325 -0.33261,0.75586 -0.75586,0.75586 -0.42325,0 -0.75391,-0.33261 -0.75391,-0.75586 0,-0.42325 0.33066,-0.75391 0.75391,-0.75391 z"
       id="path1-0-8" />
    <path
       style="color:#000000;fill:#e0e0e0;stroke-linecap:round;stroke-linejoin:round;-inkscape-stroke:none"
       d="m 134.22656,136.85742 c -0.94595,0 -1.72461,0.77866 -1.72461,1.72461 0,0.94595 0.77866,1.72461 1.72461,1.72461 0.94595,0 1.72461,-0.77866 1.72461,-1.72461 0,-0.94595 -0.77866,-1.72461 -1.72461,-1.72461 z m 0,1.12305 c 0.33881,0 0.60156,0.26275 0.60156,0.60156 0,0.33881 -0.26275,0.60156 -0.60156,0.60156 -0.33881,0 -0.60156,-0.26275 -0.60156,-0.60156 0,-0.33881 0.26275,-0.60156 0.60156,-0.60156 z"
       id="path1-3" />
  </g>
</svg>
